<mxfile host="app.diagrams.net" modified="2022-03-08T11:10:20.335Z" agent="5.0 (Windows NT 10.0; Win64; x64) AppleWebKit/537.36 (KHTML, like Gecko) Chrome/99.0.4844.51 Safari/537.36 Edg/99.0.1150.30" etag="nZDjZS8IRe7Jwx-unGxJ" version="16.6.6" type="github">
  <diagram id="W0FRnxIimgFNZxXmGWNs" name="Page-1">
    <mxGraphModel dx="1022" dy="446" grid="1" gridSize="10" guides="1" tooltips="1" connect="1" arrows="1" fold="1" page="1" pageScale="1" pageWidth="850" pageHeight="1100" math="0" shadow="0">
      <root>
        <mxCell id="0" />
        <mxCell id="1" parent="0" />
        <mxCell id="UhlE05MlyXjMV6Q5dpwH-2" value="Actual device/Raspberrypi/MockDevice" style="text;html=1;align=center;verticalAlign=middle;resizable=0;points=[];autosize=1;strokeColor=none;fillColor=none;" vertex="1" parent="1">
          <mxGeometry x="20" y="315" width="220" height="20" as="geometry" />
        </mxCell>
        <mxCell id="UhlE05MlyXjMV6Q5dpwH-3" value="&lt;span&gt;FTP Server Running Raspberry pi&lt;/span&gt;&lt;br&gt;&lt;span&gt;File&amp;nbsp; transmitted over HTTP/HTTPS/TCP&lt;/span&gt;&lt;br&gt;&lt;span&gt;(FTP Server)&lt;/span&gt;" style="rounded=1;whiteSpace=wrap;html=1;" vertex="1" parent="1">
          <mxGeometry x="20" y="225" width="220" height="80" as="geometry" />
        </mxCell>
        <mxCell id="UhlE05MlyXjMV6Q5dpwH-4" value="IIOT Box/Host Device&amp;nbsp;&lt;br&gt;Get the file using Docker app and pushing to Azure&lt;br&gt;(FTP Client)" style="rounded=1;whiteSpace=wrap;html=1;" vertex="1" parent="1">
          <mxGeometry x="410" y="225" width="220" height="80" as="geometry" />
        </mxCell>
        <mxCell id="UhlE05MlyXjMV6Q5dpwH-5" value="Advantech IIOT Box/Host machine" style="text;html=1;align=center;verticalAlign=middle;resizable=0;points=[];autosize=1;strokeColor=none;fillColor=none;" vertex="1" parent="1">
          <mxGeometry x="425" y="315" width="200" height="20" as="geometry" />
        </mxCell>
        <mxCell id="UhlE05MlyXjMV6Q5dpwH-6" value="" style="endArrow=classic;html=1;rounded=0;exitX=1;exitY=0.5;exitDx=0;exitDy=0;entryX=0;entryY=0.5;entryDx=0;entryDy=0;" edge="1" parent="1" source="UhlE05MlyXjMV6Q5dpwH-3" target="UhlE05MlyXjMV6Q5dpwH-4">
          <mxGeometry width="50" height="50" relative="1" as="geometry">
            <mxPoint x="400" y="305" as="sourcePoint" />
            <mxPoint x="370" y="265" as="targetPoint" />
          </mxGeometry>
        </mxCell>
        <mxCell id="UhlE05MlyXjMV6Q5dpwH-7" value="Over HTTP/HTTPS/TCP" style="text;html=1;align=center;verticalAlign=middle;resizable=0;points=[];autosize=1;strokeColor=none;fillColor=none;" vertex="1" parent="1">
          <mxGeometry x="250" y="235" width="150" height="20" as="geometry" />
        </mxCell>
        <mxCell id="UhlE05MlyXjMV6Q5dpwH-8" value="Azure Storage" style="ellipse;whiteSpace=wrap;html=1;rounded=1;" vertex="1" parent="1">
          <mxGeometry x="435" y="20" width="120" height="60" as="geometry" />
        </mxCell>
        <mxCell id="UhlE05MlyXjMV6Q5dpwH-9" value="Acquired File send&lt;br&gt;Over HTTP/HTTPS/TCP" style="text;html=1;align=center;verticalAlign=middle;resizable=0;points=[];autosize=1;strokeColor=none;fillColor=none;" vertex="1" parent="1">
          <mxGeometry x="490" y="115" width="150" height="30" as="geometry" />
        </mxCell>
        <mxCell id="UhlE05MlyXjMV6Q5dpwH-10" value="" style="endArrow=classic;html=1;rounded=0;entryX=0.5;entryY=1;entryDx=0;entryDy=0;exitX=0.387;exitY=-0.002;exitDx=0;exitDy=0;exitPerimeter=0;" edge="1" parent="1" source="UhlE05MlyXjMV6Q5dpwH-4" target="UhlE05MlyXjMV6Q5dpwH-8">
          <mxGeometry width="50" height="50" relative="1" as="geometry">
            <mxPoint x="490" y="230" as="sourcePoint" />
            <mxPoint x="450" y="120" as="targetPoint" />
          </mxGeometry>
        </mxCell>
      </root>
    </mxGraphModel>
  </diagram>
</mxfile>
